<mxfile host="app.diagrams.net" modified="2023-08-26T23:30:51.895Z" agent="Mozilla/5.0 (X11; Linux x86_64) AppleWebKit/537.36 (KHTML, like Gecko) Chrome/115.0.0.0 Safari/537.36" etag="Wi7m049_meYe5grIWK8R" version="21.6.9" type="github">
  <diagram name="Page-1" id="SI9Q8uwivGDW8h995AgO">
    <mxGraphModel dx="724" dy="445" grid="1" gridSize="10" guides="1" tooltips="1" connect="1" arrows="1" fold="1" page="1" pageScale="1" pageWidth="850" pageHeight="1100" math="0" shadow="0">
      <root>
        <mxCell id="0" />
        <mxCell id="1" parent="0" />
      </root>
    </mxGraphModel>
  </diagram>
</mxfile>
